<svg xmlns="http://www.w3.org/2000/svg" viewBox="0 0 500 500">
  <path d="M 50.0 350.0 L 50.0 290.0" stroke="red" fill="none"/>
  <path d="M 50.0 290.0 L 90.0 290.0" stroke="red" fill="none"/>
  <path d="M 90.0 290.0 L 50.0 290.0" stroke="red" fill="none"/>
  <path d="M 50.0 290.0 L 50.0 320.0" stroke="red" fill="none"/>
  <path d="M 50.0 320.0 L 75.0 320.0" stroke="red" fill="none"/>
  <path d="M 105.0 350.0 L 105.0 290.0" stroke="red" fill="none"/>
  <path d="M 105.0 290.0 L 145.0 290.0" stroke="red" fill="none"/>
  <path d="M 145.0 290.0 L 145.0 350.0" stroke="red" fill="none"/>
  <path d="M 145.0 350.0 L 145.0 320.0" stroke="red" fill="none"/>
  <path d="M 145.0 320.0 L 105.0 320.0" stroke="red" fill="none"/>
  <path d="M 200.0 350.0 L 200.0 290.0" stroke="red" fill="none"/>
  <path d="M 200.0 290.0 L 240.0 290.0" stroke="red" fill="none"/>
  <path d="M 240.0 290.0 L 240.0 350.0" stroke="red" fill="none"/>
  <path d="M 240.0 350.0 L 200.0 350.0" stroke="red" fill="none"/>
  <path d="M 255.0 350.0 L 255.0 290.0" stroke="red" fill="none"/>
  <path d="M 255.0 290.0 L 295.0 290.0" stroke="red" fill="none"/>
  <path d="M 295.0 290.0 L 255.0 290.0" stroke="red" fill="none"/>
  <path d="M 255.0 290.0 L 255.0 320.0" stroke="red" fill="none"/>
  <path d="M 255.0 320.0 L 280.0 320.0" stroke="red" fill="none"/>
  <path d="M 280.0 320.0 L 255.0 320.0" stroke="red" fill="none"/>
  <path d="M 255.0 320.0 L 255.0 350.0" stroke="red" fill="none"/>
  <path d="M 255.0 350.0 L 295.0 350.0" stroke="red" fill="none"/>
</svg>